<svg xmlns="http://www.w3.org/2000/svg" xmlns:xlink="http://www.w3.org/1999/xlink" xmlns:lucid="lucid" width="1087" height="600.8"><g transform="translate(661.5 -241.70296420763248)" lucid:page-tab-id="0_0"><path d="M-1000 0H500v1000h-1500z" fill="#fff"/><path d="M100 580h280v241H100z" fill="#fff"/><path d="M100 665v40h280v-40M100 743v40h280v-40" fill="#f2f2ff"/><path d="M100 626v-46h280v46" fill="#edf5ff"/><path d="M100 580h280v241H100zM100 626h280M160 626v195" stroke="#333" stroke-width="3" fill="none"/><use xlink:href="#a" transform="matrix(1,0,0,1,110,580) translate(86.31731770833333 34.26145833333334)"/><use xlink:href="#b" transform="matrix(1,0,0,1,105,628.5) translate(13 20.6)"/><use xlink:href="#c" transform="matrix(1,0,0,1,165,628.5) translate(5 26.191145833333334)"/><use xlink:href="#d" transform="matrix(1,0,0,1,105,667.5) translate(13.524999999999999 20.6)"/><use xlink:href="#e" transform="matrix(1,0,0,1,165,667.5) translate(5 26.191145833333334)"/><use xlink:href="#f" transform="matrix(1,0,0,1,165,706.5) translate(5 26.191145833333334)"/><use xlink:href="#g" transform="matrix(1,0,0,1,165,745.5) translate(5 26.191145833333334)"/><use xlink:href="#h" transform="matrix(1,0,0,1,165,784.5) translate(5 26.191145833333334)"/><path d="M100 263.2h280v259H100z" fill="#fff"/><path d="M100 342.2v37h280v-37M100 414.2v37h280v-37M100 486.2v36h280v-36" fill="#f2f3f5"/><path d="M100 306.2v-43h280v43" fill="#fff"/><path d="M100 263.2h280v259H100zM100 306.2h280M160 306.2v216" stroke="#000" stroke-width="3" fill="none"/><use xlink:href="#i" transform="matrix(1,0,0,1,110,263.2029642076325) translate(39.287109375 31.161458333333336)"/><use xlink:href="#b" transform="matrix(1,0,0,1,105,308.7029642076325) translate(13 19.1)"/><use xlink:href="#c" transform="matrix(1,0,0,1,165,308.7029642076325) translate(0 23.091145833333336)"/><use xlink:href="#d" transform="matrix(1,0,0,1,105,344.7029642076325) translate(13.524999999999999 19.1)"/><use xlink:href="#j" transform="matrix(1,0,0,1,165,344.7029642076325) translate(0 23.091145833333336)"/><use xlink:href="#d" transform="matrix(1,0,0,1,105,380.7029642076325) translate(13.524999999999999 19.1)"/><use xlink:href="#e" transform="matrix(1,0,0,1,165,380.7029642076325) translate(0 23.091145833333336)"/><use xlink:href="#d" transform="matrix(1,0,0,1,105,416.7029642076325) translate(13.524999999999999 19.1)"/><use xlink:href="#k" transform="matrix(1,0,0,1,165,416.7029642076325) translate(0 23.091145833333336)"/><use xlink:href="#f" transform="matrix(1,0,0,1,165,452.7029642076325) translate(0 23.091145833333336)"/><use xlink:href="#l" transform="matrix(1,0,0,1,165,488.7029642076325) translate(0 23.091145833333336)"/><path d="M-270 500H10v241h-280z" fill="#fff"/><path d="M-270 585v40H10v-40M-270 663v40H10v-40" fill="#f2f2ff"/><path d="M-270 546v-46H10v46" fill="#e3fae3"/><path d="M-270 500H10v241h-280zM-270 546H10M-210 546v195" stroke="#333" stroke-width="3" fill="none"/><use xlink:href="#m" transform="matrix(1,0,0,1,-260,500) translate(81.851171875 34.26145833333334)"/><use xlink:href="#b" transform="matrix(1,0,0,1,-265,548.5) translate(13 20.6)"/><use xlink:href="#c" transform="matrix(1,0,0,1,-205,548.5) translate(5 26.191145833333334)"/><use xlink:href="#n" transform="matrix(1,0,0,1,-205,587.5) translate(5 26.191145833333334)"/><use xlink:href="#o" transform="matrix(1,0,0,1,-205,626.5) translate(5 26.191145833333334)"/><use xlink:href="#p" transform="matrix(1,0,0,1,-205,665.5) translate(5 26.191145833333334)"/><use xlink:href="#q" transform="matrix(1,0,0,1,-205,704.5) translate(5 26.191145833333334)"/><path d="M-220 294.3h180v124h-180z" fill="#fff"/><path d="M-220 379.3v39h180v-39" fill="#f2f2ff"/><path d="M-220 340.3v-46h180v46" fill="#fff3d9"/><path d="M-220 294.3h180v124h-180zM-220 340.3h180M-160 340.3v78" stroke="#333" stroke-width="3" fill="none"/><use xlink:href="#r" transform="matrix(1,0,0,1,-210,294.29641658858486) translate(28.08381076388889 34.26145833333334)"/><use xlink:href="#b" transform="matrix(1,0,0,1,-215,342.79641658858486) translate(13 20.6)"/><use xlink:href="#c" transform="matrix(1,0,0,1,-155,342.79641658858486) translate(5 26.191145833333334)"/><use xlink:href="#s" transform="matrix(1,0,0,1,-155,381.79641658858486) translate(5 26.191145833333334)"/><path d="M-640 263.2h280v259h-280z" fill="#fff"/><path d="M-640 342.2v37h280v-37M-640 414.2v37h280v-37M-640 486.2v36h280v-36" fill="#f2f3f5"/><path d="M-640 306.2v-43h280v43" fill="#fff"/><path d="M-640 263.2h280v259h-280zM-640 306.2h280M-580 306.2v216" stroke="#000" stroke-width="3" fill="none"/><use xlink:href="#t" transform="matrix(1,0,0,1,-630,263.2029642076325) translate(81.69270833333333 31.161458333333336)"/><use xlink:href="#b" transform="matrix(1,0,0,1,-635,308.7029642076325) translate(13 19.1)"/><use xlink:href="#c" transform="matrix(1,0,0,1,-575,308.7029642076325) translate(0 23.091145833333336)"/><use xlink:href="#d" transform="matrix(1,0,0,1,-635,344.7029642076325) translate(13.524999999999999 19.1)"/><use xlink:href="#j" transform="matrix(1,0,0,1,-575,344.7029642076325) translate(0 23.091145833333336)"/><use xlink:href="#d" transform="matrix(1,0,0,1,-635,380.7029642076325) translate(13.524999999999999 19.1)"/><use xlink:href="#e" transform="matrix(1,0,0,1,-575,380.7029642076325) translate(0 23.091145833333336)"/><use xlink:href="#f" transform="matrix(1,0,0,1,-575,416.7029642076325) translate(0 23.091145833333336)"/><use xlink:href="#g" transform="matrix(1,0,0,1,-575,452.7029642076325) translate(0 23.091145833333336)"/><use xlink:href="#l" transform="matrix(1,0,0,1,-575,488.7029642076325) translate(0 23.091145833333336)"/><path d="M-242.12 359.86H-357" stroke="#3a414a" stroke-width="3" fill="none"/><path d="M-226.35 359.86l-14.27 4.63v-9.28z" stroke="#3a414a" stroke-width="3" fill="#3a414a"/><path d="M-356.96 361.33h-1.54v-2.95h1.54z" stroke="#3a414a" stroke-width=".05" fill="#3a414a"/><path d="M-17.88 359.86H97" stroke="#3a414a" stroke-width="3" fill="none"/><path d="M-33.65 359.86l14.27-4.64v9.27z" stroke="#3a414a" stroke-width="3" fill="#3a414a"/><path d="M98.5 361.33h-1.54v-2.95h1.54z" stroke="#3a414a" stroke-width=".05" fill="#3a414a"/><path d="M-292.12 564.9H-309a6 6 0 0 1-6-6V402.25a6 6 0 0 0-6-6h-36" stroke="#3a414a" stroke-width="3" fill="none"/><path d="M-276.35 564.9l-14.27 4.65v-9.27z" stroke="#3a414a" stroke-width="3" fill="#3a414a"/><path d="M-356.96 397.7h-1.54v-2.94h1.54z" stroke="#3a414a" stroke-width=".05" fill="#3a414a"/><path d="M32.12 564.9H49a6 6 0 0 0 6-6V402.25a6 6 0 0 1 6-6h36" stroke="#3a414a" stroke-width="3" fill="none"/><path d="M16.35 564.9l14.27-4.63v9.28z" stroke="#3a414a" stroke-width="3" fill="#3a414a"/><path d="M98.5 397.7h-1.54v-2.94h1.54z" stroke="#3a414a" stroke-width=".05" fill="#3a414a"/><path d="M97 684.33H61a6 6 0 0 1-6-6V570.9a6 6 0 0 0-6-6H32.12" stroke="#3a414a" stroke-width="3" fill="none"/><path d="M98.5 685.8h-1.54v-2.95h1.54z" stroke="#3a414a" stroke-width=".05" fill="#3a414a"/><path d="M16.35 564.9l14.27-4.63v9.28z" stroke="#3a414a" stroke-width="3" fill="#3a414a"/><path d="M383 432.63h32.5a6 6 0 0 1 6 6V639.6a6 6 0 0 1-6 6h-13.38" stroke="#3a414a" stroke-width="3" fill="none"/><path d="M383.04 434.1h-1.54v-2.95h1.54z" stroke="#3a414a" stroke-width=".05" fill="#3a414a"/><path d="M386.35 645.6l14.27-4.63v9.26z" stroke="#3a414a" stroke-width="3" fill="#3a414a"/><defs><path d="M484-144c91 0 275-43 275-120v-184c-54 18-283 13-339 27-84 21-172 73-172 157 0 80 79 120 236 120zm27-847c168 0 413 106 413 260v563c0 15 16 23 48 26-4 64-6 118-6 163-81-4-138-29-172-76-80 51-181 76-304 76C213 21 75-75 75-266c0-155 132-276 270-302-15-8 340-16 395-49 13-7 20-20 21-39-1 24-2 8-2-49 0-71-154-124-234-124-152 0-248 58-288 173L79-690c32-191 203-301 432-301" id="u"/><path d="M125-1357h167V0H125v-1357" id="v"/><path d="M878-484c0-170-176-342-346-342-173 0-309 165-309 342 0 174 142 340 314 340 171 0 341-169 341-340zm165 0c0 259-247 505-506 505-129 0-236-50-319-149V0H51v-1357h167v515c79-99 183-149 314-149 260 0 511 247 511 507" id="w"/><path d="M470-144c172 0 264-158 264-340v-486h165V0H734v-96C656-18 568 21 470 21 202 21 46-186 46-463v-507h165v507c-4 167 99 319 259 319" id="x"/><path d="M1018-991c257 0 359 224 359 507V0h-166v-484c0-228-64-342-193-342-155-1-215 166-215 342V0H637l-1-484c0-228-64-342-193-342-159-1-225 164-225 342V0H53v-970h165v68c59-59 134-89 225-89 133 0 229 56 286 168 46-112 142-168 289-168" id="y"/><g id="a"><use transform="matrix(0.015190972222222224,0,0,0.015190972222222224,0,0)" xlink:href="#u"/><use transform="matrix(0.015190972222222224,0,0,0.015190972222222224,16.649305555555557,0)" xlink:href="#v"/><use transform="matrix(0.015190972222222224,0,0,0.015190972222222224,23.211805555555557,0)" xlink:href="#w"/><use transform="matrix(0.015190972222222224,0,0,0.015190972222222224,40.954861111111114,0)" xlink:href="#x"/><use transform="matrix(0.015190972222222224,0,0,0.015190972222222224,57.20920138888889,0)" xlink:href="#y"/></g><path d="M30-248c87 1 191-15 191 75 0 78-77 80-158 76V0H30v-248zm33 125c57 0 124 11 124-50 0-59-68-47-124-48v98" id="z"/><path d="M194 0L95-120 63-95V0H30v-248h33v124l119-124h40L117-140 236 0h-42" id="A"/><g id="b"><use transform="matrix(0.05,0,0,0.05,0,0)" xlink:href="#z"/><use transform="matrix(0.05,0,0,0.05,12,0)" xlink:href="#A"/></g><path fill="#333" d="M240-1205c-40 0-79-36-79-76s39-76 79-76c41 0 78 35 78 76s-37 76-78 76zM47-957h257V0H174v-827H47v-130" id="B"/><path fill="#333" d="M-2-478c0-256 249-501 505-501 147 0 261 65 343 196v-572h132V0H846v-174C761-43 645 22 498 22 243 22-2-223-2-478zm843 0c0-191-151-371-338-371S128-665 128-478s183 370 370 370c188 0 343-180 343-370" id="C"/><g id="c"><use transform="matrix(0.01193576388888889,0,0,0.01193576388888889,0,0)" xlink:href="#B"/><use transform="matrix(0.01193576388888889,0,0,0.01193576388888889,4.774305555555556,0)" xlink:href="#C"/></g><path d="M63-220v92h138v28H63V0H30v-248h175v28H63" id="D"/><g id="d"><use transform="matrix(0.05,0,0,0.05,0,0)" xlink:href="#D"/><use transform="matrix(0.05,0,0,0.05,10.950000000000001,0)" xlink:href="#A"/></g><path fill="#333" d="M497-108c108 0 303-51 303-143v-220c-2 23-338 19-365 38-104 20-200 82-200 182 0 95 87 143 262 143zm28-871c161 0 405 100 405 248v579c0 27 16 41 48 44-1 21-3 64-5 129-72-4-122-33-151-87-82 59-188 88-318 88C233 22 97-70 97-253c0-145 124-253 248-288 70-20 368-9 427-58 17-9 27-25 29-46-1 7-1-13-1-60 0-84-168-147-260-147-166 0-269 58-309 174l-126-27c31-178 203-274 420-274" id="E"/><path fill="#333" d="M483-108c191 0 291-169 291-370v-479h130V0H774v-137C701-31 604 22 483 22 219 22 67-183 67-456v-501h130v501c-4 182 112 348 286 348" id="F"/><path fill="#333" d="M406 0C279 4 176-105 176-232v-595H26v-130c75 0 120-17 137-51 9-17 13-69 13-155h130v206h241v130H306v595c0 70 49 105 146 105 18 0 78-3 95-3V0H406" id="G"/><path fill="#333" d="M543-849c-184 0-339 185-339 371V0H74v-1355h130v572c84-131 197-196 339-196 250 0 421 235 421 493V0H834v-478c4-195-107-371-291-371" id="H"/><path fill="#333" d="M881-477c0-189-160-372-351-372-189 0-348 181-348 372s160 369 348 369 351-180 351-369zm-829-1c0-256 220-501 478-501 257 0 481 246 481 502S785 22 530 22C276 22 52-223 52-478" id="I"/><path fill="#333" d="M550-827c-191 0-346 159-346 349V0H72v-957h132v174c85-116 198-174 339-174h204v174c-69-29-134-44-197-44" id="J"/><path fill="#333" d="M72-130h866V0H72v-130" id="K"/><g id="e"><use transform="matrix(0.01193576388888889,0,0,0.01193576388888889,0,0)" xlink:href="#E"/><use transform="matrix(0.01193576388888889,0,0,0.01193576388888889,12.723524305555557,0)" xlink:href="#F"/><use transform="matrix(0.01193576388888889,0,0,0.01193576388888889,25.136718750000004,0)" xlink:href="#G"/><use transform="matrix(0.01193576388888889,0,0,0.01193576388888889,32.44140625,0)" xlink:href="#H"/><use transform="matrix(0.01193576388888889,0,0,0.01193576388888889,44.98589409722222,0)" xlink:href="#I"/><use transform="matrix(0.01193576388888889,0,0,0.01193576388888889,58.413628472222214,0)" xlink:href="#J"/><use transform="matrix(0.01193576388888889,0,0,0.01193576388888889,68.642578125,0)" xlink:href="#K"/><use transform="matrix(0.01193576388888889,0,0,0.01193576388888889,81.43771701388889,0)" xlink:href="#B"/><use transform="matrix(0.01193576388888889,0,0,0.01193576388888889,86.21202256944444,0)" xlink:href="#C"/></g><path fill="#333" d="M86-1355h132V0H86v-1355" id="L"/><path fill="#333" d="M52-478c0-256 228-501 485-501 264 0 489 248 480 516H180c0 180 174 355 357 355 148 0 301-110 347-219l130 23C955-140 749 17 537 22 280 28 52-222 52-478zm815-115c-38-129-172-257-330-256-158 0-295 130-340 256h670" id="M"/><g id="f"><use transform="matrix(0.01193576388888889,0,0,0.01193576388888889,0,0)" xlink:href="#G"/><use transform="matrix(0.01193576388888889,0,0,0.01193576388888889,7.304687500000001,0)" xlink:href="#B"/><use transform="matrix(0.01193576388888889,0,0,0.01193576388888889,12.078993055555557,0)" xlink:href="#G"/><use transform="matrix(0.01193576388888889,0,0,0.01193576388888889,19.383680555555557,0)" xlink:href="#L"/><use transform="matrix(0.01193576388888889,0,0,0.01193576388888889,23.620876736111114,0)" xlink:href="#M"/></g><path fill="#333" d="M431-1222c-103-2-191 65-188 167v98h188v130H243V0H111v-827H33v-130h78c-7-146 8-241 94-317 61-53 135-81 226-81v133" id="N"/><path fill="#333" d="M898-260C898-89 674 20 489 20 280 20 75-78 57-254l126-27c2 114 176 171 313 171 113 0 265-50 265-150 0-60-40-102-120-127-21-6-104-22-252-42-166-23-242-71-302-158-134-339 365-481 654-327 94 50 148 120 161 213l-126 27c-25-116-134-174-329-174-116 0-251 47-251 149 0 73 54 127 164 147 83 15 168 18 253 29 83 11 158 46 225 101 40 33 60 87 60 162" id="O"/><g id="g"><use transform="matrix(0.01193576388888889,0,0,0.01193576388888889,0,0)" xlink:href="#C"/><use transform="matrix(0.01193576388888889,0,0,0.01193576388888889,13.284505208333334,0)" xlink:href="#E"/><use transform="matrix(0.01193576388888889,0,0,0.01193576388888889,25.435112847222225,0)" xlink:href="#G"/><use transform="matrix(0.01193576388888889,0,0,0.01193576388888889,32.73980034722223,0)" xlink:href="#M"/><use transform="matrix(0.01193576388888889,0,0,0.01193576388888889,46.16753472222223,0)" xlink:href="#K"/><use transform="matrix(0.01193576388888889,0,0,0.01193576388888889,58.962673611111114,0)" xlink:href="#I"/><use transform="matrix(0.01193576388888889,0,0,0.01193576388888889,72.39040798611111,0)" xlink:href="#N"/><use transform="matrix(0.01193576388888889,0,0,0.01193576388888889,78.17925347222223,0)" xlink:href="#K"/><use transform="matrix(0.01193576388888889,0,0,0.01193576388888889,90.97439236111111,0)" xlink:href="#J"/><use transform="matrix(0.01193576388888889,0,0,0.01193576388888889,100.24848090277776,0)" xlink:href="#M"/><use transform="matrix(0.01193576388888889,0,0,0.01193576388888889,113.67621527777777,0)" xlink:href="#L"/><use transform="matrix(0.01193576388888889,0,0,0.01193576388888889,117.91341145833331,0)" xlink:href="#M"/><use transform="matrix(0.01193576388888889,0,0,0.01193576388888889,131.34114583333334,0)" xlink:href="#E"/><use transform="matrix(0.01193576388888889,0,0,0.01193576388888889,144.0646701388889,0)" xlink:href="#O"/><use transform="matrix(0.01193576388888889,0,0,0.01193576388888889,156.03624131944446,0)" xlink:href="#M"/></g><path fill="#333" d="M545-849c-196 0-341 171-341 371V0H74v-957h130v174c77-131 190-196 341-196 285 0 449 200 449 493V0H862v-478c2-219-106-371-317-371" id="P"/><path fill="#333" d="M455-849c-173 0-251 180-251 371V0H74v-957h130v106c60-85 144-128 251-128 146 0 245 69 296 208 37-139 135-208 295-208 233 0 349 167 349 501V0h-130v-478c0-247-73-371-219-371-169 0-241 180-241 371V0H675l-1-478c0-247-73-371-219-371" id="Q"/><path fill="#333" d="M922-478c0-187-188-371-375-371S209-669 209-478c0 190 155 370 343 370 187 0 370-183 370-370zm130 0c0 255-245 500-500 500-147 0-263-65-348-196V0H72v-1355h132v572c82-131 196-196 343-196 256 0 505 245 505 501" id="R"/><path fill="#333" d="M51-478c0-256 221-509 478-501 201 6 353 126 426 274H803c-71-96-163-144-274-144-189 0-348 180-348 372 0 191 160 369 348 369 100 0 189-44 266-132h155C852-65 712 22 529 22 275 22 51-223 51-478" id="S"/><path fill="#333" d="M204-656l437-331 87 99-330 254L782 0H626L289-554l-85 65V0H72v-1355h132v699" id="T"/><g id="h"><use transform="matrix(0.01193576388888889,0,0,0.01193576388888889,0,0)" xlink:href="#P"/><use transform="matrix(0.01193576388888889,0,0,0.01193576388888889,13.33224826388889,0)" xlink:href="#F"/><use transform="matrix(0.01193576388888889,0,0,0.01193576388888889,25.745442708333336,0)" xlink:href="#Q"/><use transform="matrix(0.01193576388888889,0,0,0.01193576388888889,44.21006944444445,0)" xlink:href="#R"/><use transform="matrix(0.01193576388888889,0,0,0.01193576388888889,57.79296875000001,0)" xlink:href="#M"/><use transform="matrix(0.01193576388888889,0,0,0.01193576388888889,71.22070312500001,0)" xlink:href="#J"/><use transform="matrix(0.01193576388888889,0,0,0.01193576388888889,81.4496527777778,0)" xlink:href="#K"/><use transform="matrix(0.01193576388888889,0,0,0.01193576388888889,94.24479166666669,0)" xlink:href="#I"/><use transform="matrix(0.01193576388888889,0,0,0.01193576388888889,107.67252604166667,0)" xlink:href="#N"/><use transform="matrix(0.01193576388888889,0,0,0.01193576388888889,113.46137152777781,0)" xlink:href="#K"/><use transform="matrix(0.01193576388888889,0,0,0.01193576388888889,126.25651041666667,0)" xlink:href="#G"/><use transform="matrix(0.01193576388888889,0,0,0.01193576388888889,133.56119791666669,0)" xlink:href="#J"/><use transform="matrix(0.01193576388888889,0,0,0.01193576388888889,142.83528645833334,0)" xlink:href="#E"/><use transform="matrix(0.01193576388888889,0,0,0.01193576388888889,155.5588107638889,0)" xlink:href="#S"/><use transform="matrix(0.01193576388888889,0,0,0.01193576388888889,168.49717881944446,0)" xlink:href="#T"/><use transform="matrix(0.01193576388888889,0,0,0.01193576388888889,178.57096354166669,0)" xlink:href="#O"/></g><path d="M51-165h881V0H51v-165" id="U"/><path d="M68-580C-45-823 215-987 454-987c229 0 422 106 446 301l-161 34c-17-73-62-125-139-149-121-38-274-36-352 29-25 21-38 44-38 71 0 66 59 112 178 131 86 13 176 12 261 32 115 27 244 96 244 266 0 81-40 141-102 191C645 38 359 49 192-49 101-102 48-180 33-282l163-35c5 118 149 172 287 172 93 0 238-46 238-127 0-45-37-74-103-103-48-21-337-53-386-71-61-22-144-92-164-134" id="V"/><path d="M838-484c0-173-151-342-322-342-177 0-319 167-319 342 0 176 146 340 319 340 171 0 322-167 322-340zm-807 0c0-265 224-507 485-507 260 0 487 246 487 507 0 260-229 505-487 505C255 21 31-224 31-484" id="W"/><path d="M530-826c-179 0-312 160-312 342V0H53v-970h165v127c78-99 182-148 312-148 289 0 456 203 456 499V0H819v-484c2-203-95-342-289-342" id="X"/><path d="M192-484c0 176 132 340 304 340 176 0 296-170 296-340 0-175-125-342-296-342-172 0-304 166-304 342zM962-87c7 262-205 470-468 470C247 383 70 200 36-22l162-27c41 178 140 267 297 267 189 0 305-150 302-345C718-28 618 21 496 21 226 21 26-209 26-484c0-263 209-507 470-507 123 0 224 50 301 151v-130h165v883" id="Y"/><g id="i"><use transform="matrix(0.015190972222222224,0,0,0.015190972222222224,0,0)" xlink:href="#u"/><use transform="matrix(0.015190972222222224,0,0,0.015190972222222224,16.649305555555557,0)" xlink:href="#v"/><use transform="matrix(0.015190972222222224,0,0,0.015190972222222224,23.211805555555557,0)" xlink:href="#w"/><use transform="matrix(0.015190972222222224,0,0,0.015190972222222224,40.954861111111114,0)" xlink:href="#x"/><use transform="matrix(0.015190972222222224,0,0,0.015190972222222224,57.20920138888889,0)" xlink:href="#y"/><use transform="matrix(0.015190972222222224,0,0,0.015190972222222224,81.16536458333334,0)" xlink:href="#U"/><use transform="matrix(0.015190972222222224,0,0,0.015190972222222224,97.90581597222223,0)" xlink:href="#V"/><use transform="matrix(0.015190972222222224,0,0,0.015190972222222224,113.59809027777779,0)" xlink:href="#W"/><use transform="matrix(0.015190972222222224,0,0,0.015190972222222224,131.14366319444446,0)" xlink:href="#X"/><use transform="matrix(0.015190972222222224,0,0,0.015190972222222224,148.56770833333334,0)" xlink:href="#Y"/><use transform="matrix(0.015190972222222224,0,0,0.015190972222222224,165.73350694444446,0)" xlink:href="#V"/></g><path fill="#333" d="M177-478c0 192 146 370 333 370s324-179 324-370c0-193-136-371-324-371-187 0-333 180-333 371zm332 742c191 3 334-157 330-347v-91C756-43 647 22 510 22 246 22 47-209 47-478c0-259 208-501 463-501 140 0 250 67 329 201v-179h130v888c6 260-201 463-461 463C272 394 95 221 61 14L188-7c30 151 149 268 321 271" id="Z"/><g id="j"><use transform="matrix(0.01193576388888889,0,0,0.01193576388888889,0,0)" xlink:href="#Z"/><use transform="matrix(0.01193576388888889,0,0,0.01193576388888889,13.129340277777779,0)" xlink:href="#M"/><use transform="matrix(0.01193576388888889,0,0,0.01193576388888889,26.55707465277778,0)" xlink:href="#P"/><use transform="matrix(0.01193576388888889,0,0,0.01193576388888889,39.88932291666667,0)" xlink:href="#J"/><use transform="matrix(0.01193576388888889,0,0,0.01193576388888889,49.163411458333336,0)" xlink:href="#M"/><use transform="matrix(0.01193576388888889,0,0,0.01193576388888889,62.591145833333336,0)" xlink:href="#K"/><use transform="matrix(0.01193576388888889,0,0,0.01193576388888889,75.38628472222223,0)" xlink:href="#B"/><use transform="matrix(0.01193576388888889,0,0,0.01193576388888889,80.16059027777779,0)" xlink:href="#C"/></g><g id="k"><use transform="matrix(0.01193576388888889,0,0,0.01193576388888889,0,0)" xlink:href="#E"/><use transform="matrix(0.01193576388888889,0,0,0.01193576388888889,12.723524305555557,0)" xlink:href="#L"/><use transform="matrix(0.01193576388888889,0,0,0.01193576388888889,16.960720486111114,0)" xlink:href="#R"/><use transform="matrix(0.01193576388888889,0,0,0.01193576388888889,30.543619791666668,0)" xlink:href="#F"/><use transform="matrix(0.01193576388888889,0,0,0.01193576388888889,42.956814236111114,0)" xlink:href="#Q"/><use transform="matrix(0.01193576388888889,0,0,0.01193576388888889,61.42144097222223,0)" xlink:href="#K"/><use transform="matrix(0.01193576388888889,0,0,0.01193576388888889,74.21657986111111,0)" xlink:href="#B"/><use transform="matrix(0.01193576388888889,0,0,0.01193576388888889,78.99088541666667,0)" xlink:href="#C"/></g><g id="l"><use transform="matrix(0.01193576388888889,0,0,0.01193576388888889,0,0)" xlink:href="#L"/><use transform="matrix(0.01193576388888889,0,0,0.01193576388888889,4.237196180555556,0)" xlink:href="#M"/><use transform="matrix(0.01193576388888889,0,0,0.01193576388888889,17.664930555555557,0)" xlink:href="#P"/><use transform="matrix(0.01193576388888889,0,0,0.01193576388888889,30.997178819444446,0)" xlink:href="#Z"/><use transform="matrix(0.01193576388888889,0,0,0.01193576388888889,44.12651909722223,0)" xlink:href="#G"/><use transform="matrix(0.01193576388888889,0,0,0.01193576388888889,51.43120659722223,0)" xlink:href="#H"/><use transform="matrix(0.01193576388888889,0,0,0.01193576388888889,63.97569444444445,0)" xlink:href="#K"/><use transform="matrix(0.01193576388888889,0,0,0.01193576388888889,76.77083333333334,0)" xlink:href="#I"/><use transform="matrix(0.01193576388888889,0,0,0.01193576388888889,90.19856770833334,0)" xlink:href="#N"/><use transform="matrix(0.01193576388888889,0,0,0.01193576388888889,95.98741319444446,0)" xlink:href="#K"/><use transform="matrix(0.01193576388888889,0,0,0.01193576388888889,108.78255208333334,0)" xlink:href="#G"/><use transform="matrix(0.01193576388888889,0,0,0.01193576388888889,116.08723958333334,0)" xlink:href="#H"/><use transform="matrix(0.01193576388888889,0,0,0.01193576388888889,128.798828125,0)" xlink:href="#M"/><use transform="matrix(0.01193576388888889,0,0,0.01193576388888889,142.2265625,0)" xlink:href="#K"/><use transform="matrix(0.01193576388888889,0,0,0.01193576388888889,155.02170138888889,0)" xlink:href="#O"/><use transform="matrix(0.01193576388888889,0,0,0.01193576388888889,166.99327256944446,0)" xlink:href="#I"/><use transform="matrix(0.01193576388888889,0,0,0.01193576388888889,180.42100694444446,0)" xlink:href="#P"/><use transform="matrix(0.01193576388888889,0,0,0.01193576388888889,193.75325520833334,0)" xlink:href="#Z"/></g><path d="M395 0C260 4 152-110 152-245v-560H6v-165c76 0 121-15 136-44 7-13 10-65 10-156h165v200h235v165H317v560c-9 115 138 72 235 80V0H395" id="aa"/><path d="M528-826c-169 0-310 170-310 342V0H53v-1357h165v515c80-99 183-149 310-149 256 0 429 236 429 499V0H792v-484c3-179-95-342-264-342" id="ab"/><path d="M535-805c-177 0-317 145-317 321V0H51v-970h167v134c85-89 189-134 310-134h218v218c-83-35-153-53-211-53" id="ac"/><g id="m"><use transform="matrix(0.015190972222222224,0,0,0.015190972222222224,0,0)" xlink:href="#u"/><use transform="matrix(0.015190972222222224,0,0,0.015190972222222224,16.649305555555557,0)" xlink:href="#x"/><use transform="matrix(0.015190972222222224,0,0,0.015190972222222224,32.903645833333336,0)" xlink:href="#aa"/><use transform="matrix(0.015190972222222224,0,0,0.015190972222222224,42.65625,0)" xlink:href="#ab"/><use transform="matrix(0.015190972222222224,0,0,0.015190972222222224,59.07769097222223,0)" xlink:href="#W"/><use transform="matrix(0.015190972222222224,0,0,0.015190972222222224,76.6232638888889,0)" xlink:href="#ac"/></g><g id="n"><use transform="matrix(0.01193576388888889,0,0,0.01193576388888889,0,0)" xlink:href="#P"/><use transform="matrix(0.01193576388888889,0,0,0.01193576388888889,13.33224826388889,0)" xlink:href="#E"/><use transform="matrix(0.01193576388888889,0,0,0.01193576388888889,26.055772569444446,0)" xlink:href="#Q"/><use transform="matrix(0.01193576388888889,0,0,0.01193576388888889,44.52039930555556,0)" xlink:href="#M"/></g><g id="o"><use transform="matrix(0.01193576388888889,0,0,0.01193576388888889,0,0)" xlink:href="#O"/><use transform="matrix(0.01193576388888889,0,0,0.01193576388888889,11.971571180555557,0)" xlink:href="#F"/><use transform="matrix(0.01193576388888889,0,0,0.01193576388888889,24.384765625,0)" xlink:href="#J"/><use transform="matrix(0.01193576388888889,0,0,0.01193576388888889,35.28211805555556,0)" xlink:href="#P"/><use transform="matrix(0.01193576388888889,0,0,0.01193576388888889,48.61436631944444,0)" xlink:href="#E"/><use transform="matrix(0.01193576388888889,0,0,0.01193576388888889,61.33789062500001,0)" xlink:href="#Q"/><use transform="matrix(0.01193576388888889,0,0,0.01193576388888889,79.80251736111111,0)" xlink:href="#M"/></g><g id="p"><use transform="matrix(0.01193576388888889,0,0,0.01193576388888889,0,0)" xlink:href="#P"/><use transform="matrix(0.01193576388888889,0,0,0.01193576388888889,13.33224826388889,0)" xlink:href="#B"/><use transform="matrix(0.01193576388888889,0,0,0.01193576388888889,18.106553819444446,0)" xlink:href="#S"/><use transform="matrix(0.01193576388888889,0,0,0.01193576388888889,31.044921875000004,0)" xlink:href="#T"/><use transform="matrix(0.01193576388888889,0,0,0.01193576388888889,41.11870659722223,0)" xlink:href="#P"/><use transform="matrix(0.01193576388888889,0,0,0.01193576388888889,54.450954861111114,0)" xlink:href="#E"/><use transform="matrix(0.01193576388888889,0,0,0.01193576388888889,67.17447916666667,0)" xlink:href="#Q"/><use transform="matrix(0.01193576388888889,0,0,0.01193576388888889,85.63910590277779,0)" xlink:href="#M"/></g><g id="q"><use transform="matrix(0.01193576388888889,0,0,0.01193576388888889,0,0)" xlink:href="#C"/><use transform="matrix(0.01193576388888889,0,0,0.01193576388888889,13.284505208333334,0)" xlink:href="#E"/><use transform="matrix(0.01193576388888889,0,0,0.01193576388888889,25.435112847222225,0)" xlink:href="#G"/><use transform="matrix(0.01193576388888889,0,0,0.01193576388888889,32.73980034722223,0)" xlink:href="#M"/><use transform="matrix(0.01193576388888889,0,0,0.01193576388888889,46.16753472222223,0)" xlink:href="#K"/><use transform="matrix(0.01193576388888889,0,0,0.01193576388888889,58.962673611111114,0)" xlink:href="#I"/><use transform="matrix(0.01193576388888889,0,0,0.01193576388888889,72.39040798611111,0)" xlink:href="#N"/><use transform="matrix(0.01193576388888889,0,0,0.01193576388888889,78.17925347222223,0)" xlink:href="#K"/><use transform="matrix(0.01193576388888889,0,0,0.01193576388888889,90.97439236111111,0)" xlink:href="#R"/><use transform="matrix(0.01193576388888889,0,0,0.01193576388888889,104.55729166666667,0)" xlink:href="#B"/><use transform="matrix(0.01193576388888889,0,0,0.01193576388888889,109.33159722222223,0)" xlink:href="#J"/><use transform="matrix(0.01193576388888889,0,0,0.01193576388888889,119.56054687500001,0)" xlink:href="#G"/><use transform="matrix(0.01193576388888889,0,0,0.01193576388888889,126.86523437500001,0)" xlink:href="#H"/></g><path d="M816-616c-46-109-154-210-294-210-133 0-258 109-301 210h595zM31-484c0-260 230-507 491-507 282 0 495 254 487 541H196c10 148 163 311 326 306 147-5 277-104 326-215l166 28C947-150 753 16 522 21 260 27 31-223 31-484" id="ad"/><g id="r"><use transform="matrix(0.015190972222222224,0,0,0.015190972222222224,0,0)" xlink:href="#Y"/><use transform="matrix(0.015190972222222224,0,0,0.015190972222222224,17.165798611111114,0)" xlink:href="#ad"/><use transform="matrix(0.015190972222222224,0,0,0.015190972222222224,34.711371527777786,0)" xlink:href="#X"/><use transform="matrix(0.015190972222222224,0,0,0.015190972222222224,52.13541666666667,0)" xlink:href="#ac"/><use transform="matrix(0.015190972222222224,0,0,0.015190972222222224,64.39453125,0)" xlink:href="#ad"/><use transform="matrix(0.015190972222222224,0,0,0.015190972222222224,81.94010416666667,0)" xlink:href="#V"/></g><g id="s"><use transform="matrix(0.01193576388888889,0,0,0.01193576388888889,0,0)" xlink:href="#Z"/><use transform="matrix(0.01193576388888889,0,0,0.01193576388888889,13.129340277777779,0)" xlink:href="#M"/><use transform="matrix(0.01193576388888889,0,0,0.01193576388888889,26.55707465277778,0)" xlink:href="#P"/><use transform="matrix(0.01193576388888889,0,0,0.01193576388888889,39.88932291666667,0)" xlink:href="#J"/><use transform="matrix(0.01193576388888889,0,0,0.01193576388888889,49.163411458333336,0)" xlink:href="#M"/></g><path d="M233-1172c-50 0-96-44-96-94 0-49 46-93 96-93s96 43 96 93c0 52-44 94-96 94zM26-970h289V0H150v-805H26v-165" id="ae"/><g id="t"><use transform="matrix(0.015190972222222224,0,0,0.015190972222222224,0,0)" xlink:href="#V"/><use transform="matrix(0.015190972222222224,0,0,0.015190972222222224,15.692274305555557,0)" xlink:href="#ae"/><use transform="matrix(0.015190972222222224,0,0,0.015190972222222224,22.224392361111114,0)" xlink:href="#X"/><use transform="matrix(0.015190972222222224,0,0,0.015190972222222224,39.6484375,0)" xlink:href="#Y"/><use transform="matrix(0.015190972222222224,0,0,0.015190972222222224,56.814236111111114,0)" xlink:href="#v"/><use transform="matrix(0.015190972222222224,0,0,0.015190972222222224,63.376736111111114,0)" xlink:href="#ad"/><use transform="matrix(0.015190972222222224,0,0,0.015190972222222224,80.92230902777779,0)" xlink:href="#V"/></g></defs></g></svg>